
<!-- Uploaded to: SVG Repo, www.svgrepo.com, Transformed by: SVG Repo Mixer Tools -->
<svg fill="#e8e8e8" version="1.1" id="Layer_1" xmlns:x="&amp;ns_extend;" xmlns:i="&amp;ns_ai;"
    xmlns:graph="&amp;ns_graphs;" xmlns="http://www.w3.org/2000/svg"
    xmlns:xlink="http://www.w3.org/1999/xlink" width="800px" height="800px" viewBox="0 0 24 24"
    enable-background="new 0 0 24 24" xml:space="preserve" stroke="#e8e8e8"
    stroke-width="0.00024000000000000003">

<g id="SVGRepo_bgCarrier" stroke-width="0"/>

<g id="SVGRepo_tracerCarrier" stroke-linecap="round" stroke-linejoin="round"/>

<g id="SVGRepo_iconCarrier"> <metadata> <sfw> <slices> </slices> <slicesourcebounds width="505" height="984" bottomleftorigin="true" x="0" y="-552"> </slicesourcebounds> </sfw> </metadata> <g> <g> <g> <path d="M11.3,20H1c-0.6,0-1-0.4-1-1V1c0-0.6,0.4-1,1-1h7c0.6,0,1,0.4,1,1v1h11c0.6,0,1,0.4,1,1v4c0,0.6-0.4,1-1,1s-1-0.4-1-1V4 H8C7.4,4,7,3.6,7,3V2H2v16h9.3c0.6,0,1,0.4,1,1S11.9,20,11.3,20z"/> </g> </g> <g> <g> <path d="M11,20H1c-0.3,0-0.6-0.1-0.8-0.4C0,19.4,0,19.1,0,18.8l3-12C3.1,6.3,3.5,6,4,6h19c0.3,0,0.6,0.1,0.8,0.4 C24,6.6,24,7,24,7.3l-1.7,5.9c-0.1,0.5-0.7,0.8-1.2,0.7c-0.5-0.1-0.8-0.7-0.7-1.2L21.7,8H4.8L2.3,18H11c0.6,0,1,0.4,1,1 S11.6,20,11,20z"/> </g> </g> <g> <g> <path d="M20,18h-6c-0.6,0-1-0.4-1-1s0.4-1,1-1h6c0.6,0,1,0.4,1,1S20.6,18,20,18z"/> </g> </g> <g> <g> <path d="M17,21c-0.6,0-1-0.4-1-1v-6c0-0.6,0.4-1,1-1s1,0.4,1,1v6C18,20.6,17.6,21,17,21z"/> </g> </g> <g> <g> <path d="M17,24c-3.9,0-7-3.1-7-7s3.1-7,7-7s7,3.1,7,7S20.9,24,17,24z M17,12c-2.8,0-5,2.2-5,5s2.2,5,5,5s5-2.2,5-5S19.8,12,17,12 z"/> </g> </g> </g> </g>

</svg>